<?xml version="1.0" encoding="utf-8"?>
<!-- Generator: Adobe Illustrator 23.0.6, SVG Export Plug-In . SVG Version: 6.00 Build 0)  -->
<svg version="1.1" id="Layer_1" xmlns="http://www.w3.org/2000/svg" xmlns:xlink="http://www.w3.org/1999/xlink" x="0px" y="0px"
	 width="147.4px" height="145.4px" viewBox="0 0 147.4 145.4" style="enable-background:new 0 0 147.4 145.4;" xml:space="preserve"
	>
<style type="text/css">
	.st0{fill:#1c9546;}
</style>
<title>router</title>
<path class="st0" d="M135.1,99.1h-4.8V69.7c0-2.8-2.3-5.2-5.2-5.2c-2.8,0-5.2,2.3-5.2,5.2v29.4H78.9V69.7c0-2.9-2.3-5.2-5.2-5.2
	c-2.8,0-5.2,2.3-5.2,5.2v29.4H29.9V69.7c0-2.8-2.3-5.2-5.2-5.2c-2.8,0-5.2,2.3-5.2,5.2v29.4h-7.2C5.5,99.2,0,104.7,0,111.5v11.8
	c0,6,4.3,11.1,10.2,12.1c-0.5,1-0.7,2-0.7,3.1c0,3.8,3.1,6.9,6.9,6.9H30c3.8,0,6.9-3.1,6.9-6.9c0-1-0.2-2-0.6-2.9H112
	c-0.4,0.9-0.6,1.9-0.6,2.9c0,3.8,3.1,6.9,6.9,6.9h13.6c3.8,0,6.9-3.1,6.9-6.9c0-1.1-0.3-2.2-0.8-3.2c5.5-1.3,9.4-6.3,9.4-12v-11.8
	C147.4,104.7,141.9,99.2,135.1,99.1z M124,69.7c0-0.6,0.5-1.2,1.2-1.2c0.6,0,1.2,0.5,1.2,1.2v29.4H124L124,69.7z M72.6,69.7
	c0-0.6,0.5-1.2,1.2-1.2c0.6,0,1.2,0.5,1.2,1.2v29.4h-2.3L72.6,69.7z M23.6,69.7c0-0.6,0.5-1.2,1.2-1.2c0.6,0,1.2,0.5,1.2,1.2v29.4
	h-2.3L23.6,69.7z M32.9,138.5c0,1.6-1.3,2.9-2.9,2.9H16.4c-1.6,0-2.9-1.3-2.9-2.9v0c0-1.5,1.1-2.7,2.6-2.9h14.2
	C31.8,135.8,32.9,137,32.9,138.5L32.9,138.5z M131.9,141.4h-13.6c-1.6,0-2.9-1.3-2.9-2.9v0c0-1.5,1.1-2.7,2.6-2.9h14.2
	c1.5,0.2,2.6,1.4,2.6,2.9C134.8,140,133.5,141.3,131.9,141.4L131.9,141.4z M143.4,123.3c0,4.6-3.7,8.3-8.3,8.3h-2.6h-0.6h-13.6h-0.6
	H30.6H30H16.3c-0.2,0-0.4,0-0.6,0h-3.4c-4.6,0-8.3-3.7-8.3-8.3v-11.8c0-4.6,3.7-8.3,8.3-8.3h122.8c4.6,0,8.3,3.7,8.3,8.3
	L143.4,123.3z"/>
<path class="st0" d="M108,109.5c-4.4,0-7.9,3.5-7.9,7.9c0,4.4,3.5,7.9,7.9,7.9c4.4,0,7.9-3.5,7.9-7.9
	C115.9,113,112.4,109.5,108,109.5z M108,121.3c-2.1,0-3.9-1.7-3.9-3.9l0,0c0-2.1,1.7-3.9,3.9-3.9l0,0c2.1,0,3.9,1.7,3.9,3.9l0,0
	C111.9,119.5,110.1,121.3,108,121.3L108,121.3z"/>
<path class="st0" d="M87.7,109.5c-4.4,0-7.9,3.5-7.9,7.9c0,4.4,3.5,7.9,7.9,7.9c4.4,0,7.9-3.5,7.9-7.9
	C95.6,113,92.1,109.5,87.7,109.5z M87.7,121.3c-2.1,0-3.9-1.7-3.9-3.9c0-2.1,1.7-3.9,3.9-3.9l0,0c2.1,0,3.9,1.7,3.9,3.9l0,0
	C91.6,119.5,89.9,121.3,87.7,121.3L87.7,121.3z"/>
<path class="st0" d="M128.3,109.5c-4.4,0-7.9,3.5-7.9,7.9s3.5,7.9,7.9,7.9c4.4,0,7.9-3.5,7.9-7.9C136.2,113,132.6,109.5,128.3,109.5
	z M128.3,121.3c-2.1,0-3.9-1.7-3.9-3.9s1.7-3.9,3.9-3.9c2.1,0,3.9,1.7,3.9,3.9l0,0C132.2,119.5,130.4,121.3,128.3,121.3L128.3,121.3
	z"/>
<path class="st0" d="M73,43.3c-8,0-15.6,3.5-20.9,9.5c-0.7,0.8-0.6,2.1,0.2,2.8c0.8,0.7,2.1,0.6,2.8-0.2c4.5-5.1,11-8.1,17.8-8.1
	c7.5,0,14.5,3.6,19,9.6c0.4,0.5,1,0.8,1.6,0.8c0.4,0,0.8-0.1,1.2-0.4c0.9-0.7,1.1-1.9,0.4-2.8c0,0,0,0,0,0
	C90,47.5,81.8,43.4,73,43.3z"/>
<path class="st0" d="M106.1,43c0.4,0.4,0.9,0.7,1.5,0.7c0.5,0,0.9-0.2,1.3-0.5c0.8-0.7,0.9-2,0.2-2.8c0,0,0,0,0,0
	C100.2,29.8,87,23.6,73,23.7c-13.2,0-25.8,5.5-34.7,15.2c-0.8,0.8-0.7,2.1,0.1,2.8c0,0,0,0,0,0c0.8,0.8,2.1,0.7,2.8-0.1c0,0,0,0,0,0
	C49.4,32.7,61,27.7,73,27.7C85.8,27.6,97.9,33.3,106.1,43z"/>
<path class="st0" d="M24.5,24.8C37.1,11.5,54.7,3.9,73,4c19,0,37.2,8.1,49.9,22.3c0.4,0.4,0.9,0.7,1.5,0.7c0.5,0,1-0.2,1.3-0.5
	c0.8-0.7,0.9-2,0.2-2.8C112.4,8.6,93.2,0.1,73,0C53.6,0,34.9,8,21.6,22.1c-0.8,0.8-0.7,2.1,0.1,2.8c0,0,0,0,0,0
	C22.5,25.7,23.7,25.6,24.5,24.8C24.5,24.8,24.5,24.8,24.5,24.8z"/>
</svg>
